<svg width="42" height="62" viewBox="0 0 42 62" fill="none" xmlns="http://www.w3.org/2000/svg">
<rect x="0.5" y="0.5" width="41" height="61" rx="20.5" stroke="#A1CC9E" stroke-dasharray="10 10"/>
<path d="M22 13C22 12.4477 21.5523 12 21 12C20.4477 12 20 12.4477 20 13H22ZM20.2929 49.2071C20.6834 49.5976 21.3166 49.5976 21.7071 49.2071L28.0711 42.8431C28.4616 42.4526 28.4616 41.8195 28.0711 41.4289C27.6805 41.0384 27.0474 41.0384 26.6569 41.4289L21 47.0858L15.3431 41.4289C14.9526 41.0384 14.3195 41.0384 13.9289 41.4289C13.5384 41.8195 13.5384 42.4526 13.9289 42.8431L20.2929 49.2071ZM20 13V48.5H22V13H20Z" fill="#A1CC9E"/>
</svg>
