<svg width="170" height="300" viewBox="0 0 170 300" fill="none" xmlns="http://www.w3.org/2000/svg">
<rect width="169.675" height="300" fill="#666E66"/>
<path d="M132.22 18C145.22 40.5 154.19 96.2469 142 112.5C137.5 118.5 117.531 138.231 106.375 129.5C98.7088 123.5 88.4198 110.3 95.2198 109.5C105.72 108 115.375 117 117.375 118.5C119.375 120 133.72 144 131.22 163.5C130.22 171.5 124.92 188.9 111.72 194.5" stroke="#787878" stroke-width="3"/>
<path d="M142.404 256.499C143.738 260.999 142.704 266.799 131.904 267.999" stroke="#6F736F"/>
<path d="M143.346 280.12C143.445 275.429 144.633 266.017 155.251 268.138" stroke="#787878"/>
<path d="M155.217 268.827C150.54 269.226 141.438 267.319 142.439 256.499" stroke="#787878"/>
<path d="M131.904 266.999C136.575 267.459 146.361 269.541 143.404 279.998" stroke="#787878"/>
</svg>
