<svg width="186" height="143" viewBox="0 0 186 143" fill="none" xmlns="http://www.w3.org/2000/svg">
<path d="M35 3L57 23.5" stroke="black"/>
<path d="M2 32L24 52.5" stroke="black"/>
<path d="M56.3948 30.7734L34.9224 51.8254" stroke="black"/>
<path d="M24.4724 0.925781L3.00003 21.9778" stroke="#696969"/>
<path d="M163 64L185 84.5" stroke="#696969"/>
<path d="M130 93L152 113.5" stroke="black"/>
<path d="M184.395 91.7734L162.922 112.825" stroke="#6A6A6B"/>
<path d="M34 63L56 83.5" stroke="black"/>
<path d="M1 92L23 112.5" stroke="#696969"/>
<path d="M55.3948 90.7734L33.9224 111.825" stroke="#696969"/>
<path d="M67 93L89 113.5" stroke="black"/>
<path d="M34 122L56 142.5" stroke="#696969"/>
<path d="M88.3948 120.773L66.9224 141.825" stroke="#696969"/>
<path d="M56.4724 90.9258L35 111.978" stroke="#696969"/>
<path d="M23.4724 60.9258L2.00003 81.9778" stroke="#696969"/>
<path d="M132 33L154 53.5" stroke="black"/>
<path d="M99 62L121 82.5" stroke="black"/>
<path d="M121.472 30.9258L100 51.9778" stroke="#696969"/>
<path d="M163 3L185 23.5" stroke="#696969"/>
<path d="M130 32L152 52.5" stroke="black"/>
<path d="M184.395 30.7734L162.922 51.8254" stroke="#696969"/>
<path d="M152.472 0.925781L131 21.9778" stroke="#696969"/>
<path d="M99 3L121 23.5" stroke="#696969"/>
<path d="M66 32L88 52.5" stroke="black"/>
<path d="M120.395 30.7734L98.9224 51.8254" stroke="#6E7074"/>
<path d="M88.4724 0.925781L67 21.9778" stroke="#696969"/>
<path d="M129 93L151 113.5" stroke="#696969"/>
<path d="M96 122L118 142.5" stroke="#696969"/>
<path d="M150.395 120.773L128.922 141.825" stroke="#696969"/>
<path d="M118.472 90.9258L97 111.978" stroke="#696969"/>
</svg>
