<svg width="111" height="100" viewBox="0 0 111 100" fill="none" xmlns="http://www.w3.org/2000/svg">
<path d="M108.257 39.5L106.29 39.1422V39.1422L108.257 39.5ZM92.7574 60L93.0615 61.9767L93.266 61.9453L93.4596 61.8727L92.7574 60ZM84.2574 61L82.4584 61.8738L83.0054 63H84.2574V61ZM70.7576 42L70.2725 43.9403L70.7576 42ZM59.7574 42L58.5295 40.4213L59.7574 42ZM58.2574 50L56.5933 51.1094L56.7032 51.2742L56.8432 51.4142L58.2574 50ZM74.7574 61L74.9783 59.0122L74.8682 59H74.7574V61ZM82.999 62.5L84.7879 61.6056L84.7879 61.6056L82.999 62.5ZM51.2588 98L50.9263 99.9722L51.0914 100H51.2588V98ZM1.58822 75.5428C0.50732 75.7703 -0.184569 76.8309 0.0428488 77.9118L3.74883 95.5261C3.97625 96.607 5.03685 97.2989 6.11776 97.0715C7.19866 96.8441 7.89055 95.7835 7.66313 94.7026L4.36893 79.0454L20.0261 75.7512C21.107 75.5238 21.7989 74.4632 21.5715 73.3822C21.3441 72.3013 20.2835 71.6095 19.2026 71.8369L1.58822 75.5428ZM105.271 1.23368C105.927 6.80904 106.375 15.2622 106.558 22.8979C106.649 26.7085 106.674 30.293 106.626 33.1892C106.578 36.1464 106.456 38.2301 106.29 39.1422L110.225 39.8578C110.459 38.5699 110.578 36.1578 110.626 33.2546C110.674 30.2903 110.649 26.6498 110.557 22.8021C110.373 15.1211 109.921 6.52429 109.244 0.766317L105.271 1.23368ZM106.29 39.1422C105.309 44.5363 102.984 54.0292 92.0552 58.1273L93.4596 61.8727C106.531 56.9708 109.206 45.4637 110.225 39.8578L106.29 39.1422ZM92.4533 58.0233C87.2552 58.823 84.7561 59 84.2574 59V63C85.092 63 87.8596 62.777 93.0615 61.9767L92.4533 58.0233ZM86.0564 60.1262C84.6179 57.1646 82.2035 52.5874 79.6241 48.601C78.3371 46.612 76.9755 44.7176 75.6444 43.2344C74.9784 42.4924 74.2891 41.8183 73.5907 41.2801C72.9083 40.7542 72.115 40.2778 71.2427 40.0597L70.2725 43.9403C70.4002 43.9722 70.6901 44.0947 71.149 44.4484C71.5919 44.7897 72.1017 45.2758 72.6675 45.9062C73.7998 47.1678 75.032 48.8672 76.2658 50.774C78.728 54.5793 81.0635 59.0021 82.4584 61.8738L86.0564 60.1262ZM71.2427 40.0597C69.774 39.6925 68.6582 39.3042 67.7031 38.9639C66.8039 38.6434 65.8518 38.2872 64.9377 38.1298C63.9083 37.9526 62.8959 38.0114 61.7842 38.4339C60.7514 38.8264 59.706 39.5062 58.5295 40.4213L60.9853 43.5787C62.0588 42.7438 62.7312 42.3531 63.2051 42.173C63.6001 42.0229 63.8831 42.0071 64.2591 42.0718C64.7503 42.1564 65.3135 42.3587 66.3603 42.7317C67.3513 43.0849 68.6124 43.5252 70.2725 43.9403L71.2427 40.0597ZM58.5295 40.4213C56.5875 41.9318 55.7992 44.1443 55.6084 46.0416C55.425 47.8652 55.7504 49.8451 56.5933 51.1094L59.9215 48.8906C59.7644 48.6549 59.4611 47.7071 59.5883 46.4419C59.7082 45.2504 60.1699 44.2129 60.9853 43.5787L58.5295 40.4213ZM56.8432 51.4142C58.3726 52.9436 60.8396 55.2838 63.2928 57.3536C64.5182 58.3875 65.7653 59.3753 66.9059 60.1657C67.9922 60.9185 69.1673 61.6257 70.2082 61.923L71.307 58.077C70.9479 57.9743 70.2355 57.6065 69.1842 56.878C68.1874 56.1872 67.0469 55.2875 65.8722 54.2964C63.5253 52.3162 61.1423 50.0564 59.6716 48.5858L56.8432 51.4142ZM70.2082 61.923C70.8921 62.1185 71.4166 62.277 71.837 62.4059C72.2438 62.5306 72.596 62.641 72.883 62.723C73.55 62.9136 74.037 63 74.7574 63V59C74.4779 59 74.3649 58.9864 73.982 58.877C73.744 58.809 73.4588 58.7194 73.0094 58.5816C72.5736 58.448 72.0231 58.2816 71.307 58.077L70.2082 61.923ZM74.5366 62.9878C75.3535 63.0785 77.2259 63.2439 79.0145 63.4933C79.9067 63.6177 80.7038 63.7536 81.2778 63.8942C81.5717 63.9661 81.7381 64.023 81.8074 64.0526C81.8425 64.0675 81.7974 64.0524 81.7143 63.9945C81.6538 63.9524 81.3977 63.7695 81.2102 63.3944L84.7879 61.6056C84.5504 61.1305 84.1979 60.8497 83.9998 60.7118C83.7791 60.5581 83.5553 60.4494 83.3758 60.3728C83.0159 60.2194 82.6095 60.1021 82.2292 60.009C81.4548 59.8193 80.4976 59.6614 79.5669 59.5317C77.7097 59.2727 75.6613 59.0881 74.9783 59.0122L74.5366 62.9878ZM81.2102 63.3944C81.0984 63.1708 81.0935 63.0315 81.1384 63.2663C81.1651 63.4062 81.1987 63.6199 81.236 63.9111C81.3099 64.4889 81.3887 65.2949 81.4572 66.2726C81.5941 68.2262 81.6859 70.8048 81.625 73.5177C81.564 76.2388 81.3504 79.0421 80.8938 81.4656C80.4239 83.9599 79.7467 85.7623 78.9521 86.7335L82.0479 89.2665C83.5033 87.4877 84.326 84.8526 84.8246 82.2063C85.3366 79.4892 85.5603 76.4487 85.624 73.6073C85.6879 70.7577 85.5919 68.055 85.4474 65.993C85.3752 64.9629 85.2899 64.0775 85.2036 63.4034C85.1608 63.0685 85.1152 62.7662 85.0672 62.5152C85.0374 62.3591 84.9622 61.9542 84.7879 61.6056L81.2102 63.3944ZM78.9521 86.7335C76.8024 89.361 74.6145 91.5849 70.7287 93.2189C66.7668 94.8848 60.883 96 51.2588 96V100C61.1334 100 67.6202 98.8652 72.2792 96.9061C77.0143 94.9151 79.6976 92.139 82.0479 89.2665L78.9521 86.7335ZM51.5913 96.0278C31.2192 92.593 15.9866 84.2363 3.09275 75.8249L0.907254 79.1751C14.0134 87.7249 29.7808 96.407 50.9263 99.9722L51.5913 96.0278Z" fill="#A1CC9E"/>
</svg>
