<svg width="15" height="15" viewBox="0 0 15 15" fill="none" xmlns="http://www.w3.org/2000/svg">
<path d="M8.20711 0.792893C7.81658 0.402369 7.18342 0.402369 6.79289 0.792893L0.428932 7.15685C0.0384079 7.54738 0.0384079 8.18054 0.428932 8.57107C0.819456 8.96159 1.45262 8.96159 1.84315 8.57107L7.5 2.91421L13.1569 8.57107C13.5474 8.96159 14.1805 8.96159 14.5711 8.57107C14.9616 8.18054 14.9616 7.54738 14.5711 7.15685L8.20711 0.792893ZM6.5 14C6.5 14.5523 6.94772 15 7.5 15C8.05228 15 8.5 14.5523 8.5 14H6.5ZM6.5 1.5V14H8.5V1.5H6.5Z" fill="#5E6A5D"/>
</svg>
